<svg xmlns="http://www.w3.org/2000/svg" width="400" height="400"><path d="M299.9 197.336c0 53.724-43.956 97.236-98.124 97.236-17.094 0-33.3-4.44-47.508-12.21L100.1 299.9l17.76-52.17c-8.88-14.652-13.986-31.968-13.986-50.172-.222-53.946 43.734-97.458 97.902-97.458s98.124 43.512 98.124 97.236zm-98.124-81.696c-45.51 0-82.362 36.63-82.362 81.696 0 17.982 5.772 34.41 15.762 47.952l-10.212 30.414 31.746-9.99c13.098 8.658 28.638 13.542 45.288 13.542 45.288 0 82.362-36.63 82.362-81.918s-37.074-81.696-82.584-81.696zm49.506 104.118c-.666-.888-2.22-1.554-4.662-2.886-2.442-1.11-14.208-6.882-16.428-7.77-2.22-.888-3.774-1.11-5.328 1.11-1.554 2.442-6.216 7.77-7.548 9.324-1.332 1.554-2.886 1.776-5.106.666-2.442-1.11-10.212-3.774-19.314-11.766-7.104-6.216-11.988-14.208-13.32-16.428-1.332-2.442-.222-3.774 1.11-4.884 1.11-1.11 2.442-2.886 3.552-4.218 1.11-1.332 1.554-2.442 2.442-3.996.888-1.554.444-2.886-.222-4.218-.666-1.11-5.328-12.876-7.326-17.76-1.998-4.662-3.996-3.996-5.328-3.996-1.332 0-3.108-.222-4.662-.222s-4.218.666-6.438 2.886c-2.22 2.442-8.436 8.214-8.436 19.98s8.658 23.088 9.768 24.642c1.11 1.554 16.65 26.418 41.07 35.964s24.42 6.438 28.86 5.994c4.44-.444 14.208-5.772 16.206-11.322 1.776-5.328 1.776-9.99 1.11-11.1z" fill="#27ACE2"/></svg>