<?xml version="1.0" encoding="utf-8"?>
<!-- Generator: Adobe Illustrator 23.1.0, SVG Export Plug-In . SVG Version: 6.00 Build 0)  -->
<svg version="1.1" id="Layer_1" xmlns="http://www.w3.org/2000/svg" xmlns:xlink="http://www.w3.org/1999/xlink" x="0px" y="0px"
	 viewBox="0 0 84 84" style="enable-background:new 0 0 84 84;" xml:space="preserve">
<style type="text/css">
	.st0{fill:#0373BF;}
</style>
<g>
	<path class="st0" d="M60.08,5.14c-1.13-1.24-2.71-1.99-4.4-2.11C55.63,3.02,55.59,3,55.55,3h-0.37h-3.15h-1.04H32.86h-1.04h-3.64
		h-0.43c-3.16,0-5.73,2.57-5.73,5.73V66.5c0,3.16,2.57,5.73,5.73,5.73c0.52,0,0.94-0.42,0.94-0.94s-0.42-0.94-0.94-0.94
		c-2.12,0-3.84-1.72-3.84-3.84V8.73c0-2.12,1.72-3.84,3.84-3.84h0.43h3.64h1.04c0.34,0,0.84,0.63,0.84,1.62
		c0,1.97,1.2,3.51,2.73,3.51h10.99c1.53,0,2.73-1.54,2.73-3.51c0-0.99,0.5-1.62,0.84-1.62h1.04h3.15c1.34,0,2.62,0.56,3.51,1.52
		c0.83,0.91,1.23,2.08,1.11,3.39v56.7c0,2.12-1.72,3.84-3.84,3.84c-0.52,0-0.94,0.42-0.94,0.94s0.42,0.94,0.94,0.94
		c3.16,0,5.73-2.57,5.73-5.73l0-56.61C61.84,8.13,61.27,6.45,60.08,5.14z M48.26,6.51c0,0.99-0.5,1.62-0.84,1.62H36.43
		c-0.34,0-0.84-0.63-0.84-1.62c0-0.59-0.12-1.14-0.31-1.62h13.29C48.37,5.37,48.26,5.92,48.26,6.51z"/>
	<path class="st0" d="M47.16,78.37h-4.35v-2.08c0-0.52-0.42-0.94-0.94-0.94c-0.52,0-0.94,0.42-0.94,0.94v2.08h-4.35
		c-0.52,0-0.94,0.42-0.94,0.94s0.42,0.94,0.94,0.94h10.59c0.52,0,0.94-0.42,0.94-0.94S47.68,78.37,47.16,78.37z"/>
	<path class="st0" d="M41.95,43.58c-2.22,0-4.3,0.73-5.87,2.05c-1.79,1.51-2.73,3.64-2.73,6.15V66c0,5.35,4.3,8.15,8.55,8.15
		c4.08,0,8.46-2.55,8.46-8.15V51.78C50.37,46.15,46.01,43.58,41.95,43.58z M41.91,72.26c-3.04,0-6.3-1.77-6.63-5.62h13.17
		C48.13,70.5,44.91,72.26,41.91,72.26z M48.48,64.76H35.25V51.78c0-4.34,3.48-6.32,6.71-6.32c1.74,0,3.35,0.56,4.53,1.57
		c1.31,1.13,2,2.77,2,4.74V64.76z"/>
	<path class="st0" d="M37.48,59.46h-0.15c-0.52,0-0.94,0.42-0.94,0.94c0,0.52,0.42,0.94,0.94,0.94h0.15c0.52,0,0.94-0.42,0.94-0.94
		C38.42,59.89,38,59.46,37.48,59.46z"/>
	<path class="st0" d="M41.86,59.46h-0.15c-0.52,0-0.94,0.42-0.94,0.94c0,0.52,0.42,0.94,0.94,0.94h0.15c0.52,0,0.94-0.42,0.94-0.94
		C42.81,59.89,42.39,59.46,41.86,59.46z"/>
	<path class="st0" d="M46.4,59.46h-0.15c-0.52,0-0.94,0.42-0.94,0.94c0,0.52,0.42,0.94,0.94,0.94h0.15c0.52,0,0.94-0.42,0.94-0.94
		C47.35,59.89,46.92,59.46,46.4,59.46z"/>
	<path class="st0" d="M39.75,61.73H39.6c-0.52,0-0.94,0.42-0.94,0.94c0,0.52,0.42,0.94,0.94,0.94h0.15c0.52,0,0.94-0.42,0.94-0.94
		C40.69,62.15,40.27,61.73,39.75,61.73z"/>
	<path class="st0" d="M44.29,61.73h-0.15c-0.52,0-0.94,0.42-0.94,0.94c0,0.52,0.42,0.94,0.94,0.94h0.15c0.52,0,0.94-0.42,0.94-0.94
		C45.23,62.15,44.81,61.73,44.29,61.73z"/>
	<path class="st0" d="M39.75,57.19H39.6c-0.52,0-0.94,0.42-0.94,0.94c0,0.52,0.42,0.94,0.94,0.94h0.15c0.52,0,0.94-0.42,0.94-0.94
		C40.69,57.62,40.27,57.19,39.75,57.19z"/>
	<path class="st0" d="M44.29,57.19h-0.15c-0.52,0-0.94,0.42-0.94,0.94c0,0.52,0.42,0.94,0.94,0.94h0.15c0.52,0,0.94-0.42,0.94-0.94
		C45.23,57.62,44.81,57.19,44.29,57.19z"/>
	<path class="st0" d="M37.48,54.92h-0.15c-0.52,0-0.94,0.42-0.94,0.94c0,0.52,0.42,0.94,0.94,0.94h0.15c0.52,0,0.94-0.42,0.94-0.94
		C38.42,55.35,38,54.92,37.48,54.92z"/>
	<path class="st0" d="M41.86,54.92h-0.15c-0.52,0-0.94,0.42-0.94,0.94c0,0.52,0.42,0.94,0.94,0.94h0.15c0.52,0,0.94-0.42,0.94-0.94
		C42.81,55.35,42.39,54.92,41.86,54.92z"/>
	<path class="st0" d="M46.4,54.92h-0.15c-0.52,0-0.94,0.42-0.94,0.94c0,0.52,0.42,0.94,0.94,0.94h0.15c0.52,0,0.94-0.42,0.94-0.94
		C47.35,55.35,46.92,54.92,46.4,54.92z"/>
	<path class="st0" d="M37.48,50.39h-0.15c-0.52,0-0.94,0.42-0.94,0.94c0,0.52,0.42,0.94,0.94,0.94h0.15c0.52,0,0.94-0.42,0.94-0.94
		C38.42,50.81,38,50.39,37.48,50.39z"/>
	<path class="st0" d="M41.86,50.39h-0.15c-0.52,0-0.94,0.42-0.94,0.94c0,0.52,0.42,0.94,0.94,0.94h0.15c0.52,0,0.94-0.42,0.94-0.94
		C42.81,50.81,42.39,50.39,41.86,50.39z"/>
	<path class="st0" d="M46.25,50.39c-0.52,0-0.94,0.42-0.94,0.94c0,0.52,0.42,0.94,0.94,0.94h0.15c0.52,0,0.94-0.42,0.94-0.94
		c0-0.52-0.42-0.94-0.94-0.94H46.25z"/>
	<path class="st0" d="M39.75,48.12H39.6c-0.52,0-0.94,0.42-0.94,0.94c0,0.52,0.42,0.94,0.94,0.94h0.15c0.52,0,0.94-0.42,0.94-0.94
		C40.69,48.54,40.27,48.12,39.75,48.12z"/>
	<path class="st0" d="M44.29,48.12h-0.15c-0.52,0-0.94,0.42-0.94,0.94c0,0.52,0.42,0.94,0.94,0.94h0.15c0.52,0,0.94-0.42,0.94-0.94
		C45.23,48.54,44.81,48.12,44.29,48.12z"/>
	<path class="st0" d="M39.75,52.66H39.6c-0.52,0-0.94,0.42-0.94,0.94s0.42,0.94,0.94,0.94h0.15c0.52,0,0.94-0.42,0.94-0.94
		S40.27,52.66,39.75,52.66z"/>
	<path class="st0" d="M44.29,52.66h-0.15c-0.52,0-0.94,0.42-0.94,0.94s0.42,0.94,0.94,0.94h0.15c0.52,0,0.94-0.42,0.94-0.94
		S44.81,52.66,44.29,52.66z"/>
</g>
</svg>
