<?xml version="1.0" encoding="utf-8"?>
<!-- Generator: Adobe Illustrator 23.1.0, SVG Export Plug-In . SVG Version: 6.00 Build 0)  -->
<svg version="1.1" id="Layer_1" xmlns="http://www.w3.org/2000/svg" xmlns:xlink="http://www.w3.org/1999/xlink" x="0px" y="0px"
	 viewBox="0 0 84 84" style="enable-background:new 0 0 84 84;" xml:space="preserve">
<style type="text/css">
	.st0{fill:#0373BF;}
</style>
<g>
	<path class="st0" d="M58.51,20.4c-1.13-1.24-2.77-1.95-4.48-1.95H51.2c-0.48,0-0.86,0.39-0.86,0.86s0.39,0.86,0.86,0.86h2.83
		c1.23,0,2.4,0.51,3.2,1.39c0.76,0.83,1.12,1.9,1.02,3.1v51.83c0,1.94-1.57,3.51-3.51,3.51H28.97c-1.94,0-3.51-1.57-3.51-3.51v-52.8
		c0-1.94,1.57-3.51,3.51-3.51h2.83c0.48,0,0.86-0.39,0.86-0.86s-0.39-0.86-0.86-0.86h-2.83c-2.89,0-5.24,2.35-5.24,5.24v52.8
		c0,2.89,2.35,5.24,5.24,5.24h25.77c2.89,0,5.24-2.35,5.24-5.24l0-51.75C60.12,23.14,59.6,21.6,58.51,20.4z"/>
	<path class="st0" d="M43.81,3.38c2.89-0.09,5.57,0.97,7.58,2.97c2.01,2.01,3.06,4.7,2.97,7.58c-0.01,0.48,0.36,0.87,0.84,0.89
		c0.01,0,0.02,0,0.03,0c0.46,0,0.85-0.37,0.86-0.84c0.1-3.36-1.13-6.5-3.48-8.85c-2.35-2.35-5.49-3.58-8.85-3.48
		c-0.48,0.01-0.85,0.41-0.84,0.89C42.93,3.02,43.32,3.39,43.81,3.38z"/>
	<path class="st0" d="M50.67,13.84c0.02,0,0.03,0,0.05,0c0.45,0,0.83-0.35,0.86-0.81c0.11-1.83-0.57-3.62-1.86-4.92
		c-1.29-1.29-3.09-1.97-4.91-1.86c-0.48,0.03-0.84,0.44-0.81,0.91c0.03,0.48,0.44,0.85,0.91,0.81c1.33-0.08,2.65,0.42,3.59,1.36
		c0.94,0.94,1.44,2.25,1.36,3.59C49.83,13.4,50.2,13.81,50.67,13.84z"/>
	<path class="st0" d="M36.17,26.89c0.3,0.1,0.63,0.16,0.96,0.16c0.33,0,0.66-0.05,0.99-0.15c1.38-0.41,2.23-1.54,2.08-2.66
		c0-0.02,0.01-0.03,0.01-0.04v-6.54l5.51-1.24v4.88c-0.5-0.11-1.07-0.1-1.65,0.08c0,0,0,0,0,0c-1.5,0.45-2.39,1.75-2.03,2.96
		c0.28,0.93,1.22,1.5,2.32,1.5c0.32,0,0.66-0.05,1-0.15c0.67-0.2,1.24-0.58,1.63-1.08c0.37-0.48,0.52-1.04,0.45-1.58
		c0-0.01,0.01-0.02,0.01-0.03V12.44c0-0.26-0.12-0.51-0.32-0.67c-0.2-0.16-0.47-0.23-0.73-0.17l-7.23,1.57
		c-0.4,0.09-0.68,0.44-0.68,0.84v8.5c-0.51-0.11-1.08-0.1-1.65,0.08c0,0,0,0,0,0c-0.67,0.2-1.24,0.58-1.63,1.08
		c-0.44,0.57-0.59,1.26-0.4,1.88C34.99,26.17,35.49,26.66,36.17,26.89z M45.62,23.54c-0.16,0.21-0.44,0.39-0.75,0.48
		c-0.63,0.19-1.12-0.02-1.17-0.19c-0.05-0.18,0.24-0.62,0.87-0.81c0.63-0.19,1.12,0.02,1.17,0.2C45.76,23.3,45.72,23.42,45.62,23.54
		z M45.72,13.51v1.13l-5.51,1.24v-1.18L45.72,13.51z M36.57,24.72c0.16-0.21,0.44-0.39,0.75-0.48c0.63-0.19,1.12,0.02,1.17,0.19
		s-0.24,0.62-0.87,0.81c-0.32,0.09-0.64,0.1-0.89,0.01c-0.15-0.05-0.25-0.13-0.28-0.21C36.44,24.97,36.48,24.85,36.57,24.72z"/>
</g>
</svg>
