<?xml version="1.0" encoding="utf-8"?>
<!-- Generator: Adobe Illustrator 23.1.0, SVG Export Plug-In . SVG Version: 6.00 Build 0)  -->
<svg version="1.1" id="Layer_1" xmlns="http://www.w3.org/2000/svg" xmlns:xlink="http://www.w3.org/1999/xlink" x="0px" y="0px"
	 viewBox="0 0 84 84" style="enable-background:new 0 0 84 84;" xml:space="preserve">
<style type="text/css">
	.st0{fill:#0373BF;}
</style>
<g>
	<path class="st0" d="M68.19,12.87h-9.93v-2.75c0-0.62-0.5-1.12-1.12-1.12c-0.62,0-1.12,0.5-1.12,1.12v2.75H43.06v-2.75
		c0-0.62-0.5-1.12-1.12-1.12c-0.62,0-1.12,0.5-1.12,1.12v2.75H27.86v-2.75c0-0.62-0.5-1.12-1.12-1.12c-0.62,0-1.12,0.5-1.12,1.12
		v2.75h-9.93c-0.62,0-1.12,0.5-1.12,1.12v59.15c0,0.62,0.5,1.12,1.12,1.12h52.51c0.62,0,1.12-0.5,1.12-1.12V13.99
		C69.31,13.37,68.81,12.87,68.19,12.87z M67.07,72.02H16.8v-56.9h8.81v4.27c-1.9,0.5-3.32,2.22-3.32,4.28
		c0,2.45,1.99,4.44,4.44,4.44s4.44-1.99,4.44-4.44c0-2.06-1.41-3.78-3.32-4.28v-4.27h12.96v4.27c-1.9,0.5-3.32,2.22-3.32,4.28
		c0,2.45,1.99,4.44,4.44,4.44s4.44-1.99,4.44-4.44c0-2.06-1.41-3.78-3.32-4.28v-4.27h12.96v4.27c-1.9,0.5-3.32,2.22-3.32,4.28
		c0,2.45,1.99,4.44,4.44,4.44c2.45,0,4.44-1.99,4.44-4.44c0-2.06-1.41-3.78-3.32-4.28v-4.27h8.81V72.02z M25.62,21.78
		c0.03,0.59,0.51,1.07,1.11,1.07c0.6,0,1.08-0.48,1.11-1.07c0.65,0.38,1.08,1.08,1.08,1.88c0,1.21-0.98,2.19-2.19,2.19
		s-2.19-0.98-2.19-2.19C24.54,22.86,24.98,22.17,25.62,21.78z M40.82,21.78c0.03,0.59,0.51,1.07,1.11,1.07s1.08-0.48,1.11-1.07
		c0.65,0.38,1.08,1.08,1.08,1.88c0,1.21-0.98,2.19-2.19,2.19c-1.21,0-2.19-0.98-2.19-2.19C39.74,22.86,40.18,22.17,40.82,21.78z
		 M56.02,21.78c0.03,0.59,0.51,1.07,1.11,1.07s1.08-0.48,1.11-1.07c0.65,0.38,1.08,1.08,1.08,1.88c0,1.21-0.98,2.19-2.19,2.19
		c-1.21,0-2.19-0.98-2.19-2.19C54.94,22.86,55.38,22.17,56.02,21.78z"/>
	<path class="st0" d="M57.14,39.13H38.34c-0.62,0-1.12,0.5-1.12,1.12c0,0.62,0.5,1.12,1.12,1.12h18.79c0.62,0,1.12-0.5,1.12-1.12
		C58.26,39.63,57.76,39.13,57.14,39.13z"/>
	<path class="st0" d="M32.26,36.36h-5.53c-0.62,0-1.12,0.5-1.12,1.12v5.53c0,0.62,0.5,1.12,1.12,1.12h5.53
		c0.62,0,1.12-0.5,1.12-1.12v-5.53C33.38,36.87,32.88,36.36,32.26,36.36z M31.14,41.89h-3.28v-3.28h3.28V41.89z"/>
	<path class="st0" d="M57.14,50.18H38.34c-0.62,0-1.12,0.5-1.12,1.12c0,0.62,0.5,1.12,1.12,1.12h18.79c0.62,0,1.12-0.5,1.12-1.12
		C58.26,50.68,57.76,50.18,57.14,50.18z"/>
	<path class="st0" d="M57.14,61.24H38.34c-0.62,0-1.12,0.5-1.12,1.12c0,0.62,0.5,1.12,1.12,1.12h18.79c0.62,0,1.12-0.5,1.12-1.12
		C58.26,61.74,57.76,61.24,57.14,61.24z"/>
	<path class="st0" d="M32.26,47.42h-5.53c-0.62,0-1.12,0.5-1.12,1.12v5.53c0,0.62,0.5,1.12,1.12,1.12h5.53
		c0.62,0,1.12-0.5,1.12-1.12v-5.53C33.38,47.92,32.88,47.42,32.26,47.42z M31.14,52.95h-3.28v-3.28h3.28V52.95z"/>
	<path class="st0" d="M32.26,58.47h-5.53c-0.62,0-1.12,0.5-1.12,1.12v5.53c0,0.62,0.5,1.12,1.12,1.12h5.53
		c0.62,0,1.12-0.5,1.12-1.12V59.6C33.38,58.98,32.88,58.47,32.26,58.47z M31.14,64h-3.28v-3.28h3.28V64z"/>
</g>
</svg>
