<?xml version="1.0" encoding="utf-8"?>
<!-- Generator: Adobe Illustrator 23.1.0, SVG Export Plug-In . SVG Version: 6.00 Build 0)  -->
<svg version="1.1" id="Layer_1" xmlns="http://www.w3.org/2000/svg" xmlns:xlink="http://www.w3.org/1999/xlink" x="0px" y="0px"
	 viewBox="0 0 84 84" style="enable-background:new 0 0 84 84;" xml:space="preserve">
<style type="text/css">
	.st0{fill:#0373BF;}
</style>
<g>
	<path class="st0" d="M43.03,35.37v-3.73c0-0.5-0.41-0.91-0.91-0.91c-0.5,0-0.91,0.41-0.91,0.91v3.73h-4.08
		c-0.5,0-0.91,0.41-0.91,0.91c0,0.5,0.41,0.91,0.91,0.91h4.08v3.73c0,0.5,0.41,0.91,0.91,0.91c0.5,0,0.91-0.41,0.91-0.91v-3.73h4.08
		c0.5,0,0.91-0.41,0.91-0.91c0-0.5-0.41-0.91-0.91-0.91H43.03z"/>
	<path class="st0" d="M47.11,53.2h-9.98c-0.5,0-0.91,0.41-0.91,0.91c0,0.5,0.41,0.91,0.91,0.91h9.98c0.5,0,0.91-0.41,0.91-0.91
		C48.02,53.61,47.61,53.2,47.11,53.2z"/>
	<path class="st0" d="M82.01,17.96c-0.47-0.17-0.99,0.06-1.17,0.54l-3.72,10.02C71.88,13.96,57.86,4,42.12,4
		C25.21,4,10.82,14.87,6.3,31.05c-0.14,0.48,0.15,0.99,0.63,1.12c0.49,0.14,0.99-0.15,1.12-0.63C12.35,16.15,26.03,5.82,42.12,5.82
		c15.22,0,28.74,9.77,33.52,23.98L64.89,25.8c-0.47-0.17-0.99,0.06-1.17,0.54c-0.17,0.47,0.07,0.99,0.54,1.17l12.48,4.64
		c0,0,0.01,0,0.01,0c0.1,0.03,0.2,0.05,0.3,0.05c0.08,0,0.16-0.01,0.24-0.03c0.03-0.01,0.04-0.03,0.07-0.03
		c0.02-0.01,0.05,0,0.07-0.01c0.03-0.02,0.06-0.05,0.09-0.07c0.05-0.03,0.1-0.06,0.14-0.1c0.04-0.04,0.07-0.08,0.11-0.13
		c0.04-0.05,0.07-0.1,0.1-0.15c0.01-0.02,0.03-0.04,0.04-0.06l4.63-12.48C82.72,18.66,82.48,18.14,82.01,17.96z"/>
	<path class="st0" d="M77.3,51.09c-0.48-0.13-0.99,0.15-1.12,0.63C71.89,67.11,58.2,77.44,42.12,77.44
		c-15.21,0-28.74-9.77-33.52-23.98l10.74,3.99c0.47,0.17,0.99-0.06,1.17-0.54c0.17-0.47-0.07-0.99-0.54-1.17L7.49,51.12
		c-0.03-0.01-0.07-0.01-0.1-0.02c-0.06-0.01-0.12-0.03-0.18-0.03c-0.06,0-0.12,0-0.18,0.01c-0.03,0.01-0.07,0-0.1,0.01
		c-0.02,0.01-0.04,0.02-0.06,0.03c-0.06,0.02-0.11,0.05-0.16,0.08c-0.05,0.03-0.1,0.06-0.14,0.09c-0.04,0.04-0.07,0.08-0.11,0.13
		c-0.04,0.05-0.07,0.1-0.1,0.15c-0.01,0.02-0.03,0.03-0.03,0.05L1.34,64.11c-0.19,0.47,0.04,1,0.51,1.18
		c0.11,0.04,0.23,0.07,0.34,0.07c0.36,0,0.7-0.22,0.85-0.57l4.05-10.13c5.21,14.61,19.26,24.61,35.03,24.61
		c16.91,0,31.3-10.87,35.82-27.05C78.07,51.73,77.78,51.23,77.3,51.09z"/>
	<path class="st0" d="M47.46,17.55h-10.7c-0.5,0-0.91,0.41-0.91,0.91v2.66h-6.22c-0.5,0-0.91,0.41-0.91,0.91v42.78
		c0,0.5,0.41,0.91,0.91,0.91h24.96c0.5,0,0.91-0.41,0.91-0.91V22.02c0-0.5-0.41-0.91-0.91-0.91h-6.22v-2.66
		C48.37,17.96,47.97,17.55,47.46,17.55z M53.68,22.93V63.9H30.55V22.93h6.22c0.5,0,0.91-0.41,0.91-0.91v-2.66h8.88v2.66
		c0,0.5,0.41,0.91,0.91,0.91H53.68z"/>
</g>
</svg>
