<?xml version="1.0" encoding="utf-8"?>
<!-- Generator: Adobe Illustrator 19.0.1, SVG Export Plug-In . SVG Version: 6.00 Build 0)  -->
<svg version="1.1" id="Слой_1" xmlns="http://www.w3.org/2000/svg" xmlns:xlink="http://www.w3.org/1999/xlink" x="0px" y="0px"
	 viewBox="-414 286.1 11.2 21.2" style="enable-background:new -414 286.1 11.2 21.2;" xml:space="preserve">
<style type="text/css">
	.st0{fill:none;stroke:#2C8DCC;stroke-linecap:round;stroke-linejoin:round;}
	.st1{fill:none;stroke:#2C8DCC;stroke-width:0.301;stroke-linecap:round;stroke-linejoin:round;}
	.st2{fill:none;stroke:#2C8DCC;stroke-width:0.7809;stroke-linecap:round;stroke-linejoin:round;}
	.st3{fill:#2C8DCC;}
</style>
<title>Ресурс 1</title>
<path class="st0" d="M-408.4,288.6"/>
<path class="st0" d="M-412.2,288.6c-0.7,0-1.3,0.6-1.3,1.3v15.6c0,0.7,0.6,1.3,1.3,1.3l0,0h7.6c0.7,0,1.3-0.6,1.3-1.3l0,0v-15.3
	c0.1-0.8-0.5-1.5-1.4-1.6h-0.1"/>
<path class="st0" d="M-404.7,288.6h-1.3c-0.3,0-0.5,0.3-0.5,0.7l0,0c0,0.4-0.2,0.7-0.5,0.7h-3c-0.3,0-0.5-0.3-0.5-0.7l0,0
	c0-0.4-0.2-0.7-0.4-0.7h-1.2"/>
<path class="st0" d="M-408.4,288.6"/>
<g>
	<line class="st1" x1="-410.2" y1="299.3" x2="-406.3" y2="295.4"/>
	<line class="st1" x1="-410.5" y1="297.3" x2="-408.1" y2="295"/>
</g>
<g>
	<path class="st2" d="M-403.6,287.2h-1c-0.2,0-0.4,0.2-0.4,0.5l0,0"/>
	<path class="st2" d="M-403.2,287.2L-403.2,287.2v-0.7"/>
	<rect x="-404" y="287.3" class="st3" width="0.9" height="0.3"/>
	<rect x="-405.4" y="287.7" class="st3" width="0.8" height="0.6"/>
</g>
</svg>
