<?xml version="1.0" encoding="utf-8"?>
<!-- Generator: Adobe Illustrator 23.1.0, SVG Export Plug-In . SVG Version: 6.00 Build 0)  -->
<svg version="1.1" id="Layer_1" xmlns="http://www.w3.org/2000/svg" xmlns:xlink="http://www.w3.org/1999/xlink" x="0px" y="0px"
	 viewBox="0 0 84 84" style="enable-background:new 0 0 84 84;" xml:space="preserve">
<style type="text/css">
	.st0{fill:#0373BF;}
</style>
<g>
	<path class="st0" d="M62.89,12.26c0.17-1.86-0.44-3.64-1.7-5.02c-1.19-1.3-2.83-2.07-4.62-2.22C56.51,5,56.46,4.97,56.4,4.97
		c0,0,0,0-0.01,0l-0.39,0c0,0,0,0-0.01,0l-3.33,0h0l-1.1,0c-0.83,0-1.61,0.45-2.16,1.23c-0.47,0.68-0.73,1.57-0.73,2.49
		c0,0.52-0.14,1.01-0.37,1.35c-0.08,0.11-0.28,0.37-0.51,0.37l-11.63,0.01c0,0,0,0,0,0c-0.36,0-0.89-0.67-0.89-1.72
		c0-2.08-1.26-3.71-2.87-3.71c-0.01,0-0.01,0-0.02,0l-4.95,0c0,0,0,0,0,0l-0.45,0c-1.61,0-3.14,0.64-4.28,1.78
		c-1.15,1.15-1.78,2.67-1.78,4.29l0.06,61.15c0,3.33,2.7,6.04,6.03,6.06c0.01,0,0.03,0,0.04,0l29.85-0.03
		c1.61,0,3.14-0.64,4.28-1.78c1.15-1.15,1.78-2.67,1.78-4.29L62.89,12.26z M59.76,75.06c-0.77,0.77-1.79,1.2-2.87,1.2l-29.85,0.03
		c-0.01,0-0.02,0-0.03,0c-2.23-0.01-4.04-1.83-4.04-4.06l-0.06-61.15c0-2.24,1.82-4.07,4.06-4.07l2.88,0c0,0,0,0,0,0l2.52,0
		c0,0,0,0,0,0c0.36,0,0.89,0.67,0.89,1.72c0,2.08,1.26,3.71,2.87,3.71c0.01,0,0.01,0,0.02,0l11.63-0.01c0.83,0,1.62-0.45,2.16-1.23
		c0.47-0.68,0.73-1.56,0.73-2.49c0-0.52,0.14-1.01,0.37-1.35c0.08-0.11,0.28-0.37,0.51-0.37l4.47,0c1.41,0.01,2.75,0.59,3.68,1.61
		c0.88,0.96,1.3,2.2,1.18,3.58l0.06,60.02C60.95,73.27,60.53,74.29,59.76,75.06z"/>
	<path class="st0" d="M35.05,37.37c0.26,0,0.51-0.09,0.71-0.29l8.86-8.75c0.39-0.39,0.4-1.02,0.01-1.41
		c-0.39-0.39-1.02-0.4-1.41-0.01l-8.86,8.75c-0.39,0.39-0.4,1.02-0.01,1.41C34.54,37.27,34.8,37.37,35.05,37.37z"/>
	<path class="st0" d="M52.81,28.57L32.67,48.46c-0.39,0.39-0.4,1.02-0.01,1.41c0.19,0.2,0.45,0.3,0.71,0.3
		c0.26,0,0.51-0.09,0.71-0.29l20.14-19.89c0.39-0.39,0.4-1.02,0.01-1.41C53.84,28.19,53.21,28.18,52.81,28.57z"/>
</g>
</svg>
